<svg width="17" height="16" viewBox="0 0 17 16" fill="none" xmlns="http://www.w3.org/2000/svg">
<path d="M15.69 8C15.69 8.65 15.23 9.14 14.83 9.57C14.6 9.82 14.36 10.07 14.27 10.29C14.17 10.51 14.18 10.84 14.17 11.17C14.17 11.77 14.16 12.47 13.69 12.95C13.21 13.43 12.53 13.45 11.94 13.45C11.62 13.45 11.29 13.46 11.08 13.55C10.88 13.62 10.62 13.88 10.38 14.12C9.96004 14.53 9.48004 15 8.84004 15C8.20004 15 7.72004 14.53 7.30004 14.12C7.099 13.8907 6.86271 13.6949 6.60004 13.54C6.38004 13.45 6.06004 13.46 5.73004 13.45C5.14004 13.45 4.46004 13.43 3.99004 12.95C3.52004 12.47 3.51004 11.78 3.50004 11.17C3.50004 10.84 3.49004 10.5 3.40004 10.29C3.33004 10.09 3.08004 9.82 2.85004 9.58C2.45004 9.14 1.98004 8.65 1.98004 8C1.98004 7.35 2.44004 6.86 2.85004 6.42C3.08004 6.18 3.32004 5.92 3.41004 5.71C3.50004 5.49 3.49004 5.16 3.50004 4.83C3.50004 4.23 3.52004 3.53 3.99004 3.05C4.46004 2.57 5.14004 2.55 5.73004 2.55C6.06004 2.55 6.39004 2.54 6.59004 2.45C6.79004 2.37 7.06004 2.12 7.29004 1.88C7.72004 1.47 8.20004 1 8.84004 1C9.47004 1 9.96004 1.47 10.38 1.88C10.62 2.12 10.87 2.36 11.08 2.46C11.3 2.55 11.62 2.54 11.94 2.55C12.54 2.55 13.21 2.57 13.69 3.05C14.16 3.53 14.17 4.22 14.18 4.83C14.18 5.16 14.18 5.5 14.27 5.71C14.35 5.91 14.6 6.18 14.83 6.42C15.23 6.86 15.69 7.35 15.69 8Z" fill="#437AFF"/>
<path d="M7.86004 10.5C8.06004 10.5 8.24004 10.58 8.38004 10.72C8.51004 10.86 8.59004 11.05 8.59004 11.25C8.59004 11.32 8.62004 11.38 8.66004 11.43C8.68249 11.4539 8.7096 11.473 8.7397 11.486C8.76979 11.499 8.80225 11.5058 8.83504 11.5058C8.86784 11.5058 8.90029 11.499 8.93039 11.486C8.96049 11.473 8.9876 11.4539 9.01004 11.43C9.03306 11.4061 9.05111 11.3779 9.06313 11.347C9.07514 11.3161 9.08089 11.2831 9.08004 11.25C9.08004 11.05 9.16004 10.86 9.30004 10.72C9.36777 10.6506 9.44863 10.5955 9.53791 10.5577C9.62719 10.5199 9.7231 10.5003 9.82004 10.5H11.78C11.91 10.5 12.03 10.45 12.12 10.35C12.2143 10.2577 12.2682 10.1319 12.27 10V6C12.2682 5.86812 12.2143 5.74232 12.12 5.65C12.0762 5.60366 12.0235 5.56652 11.9651 5.54076C11.9068 5.51501 11.8438 5.50115 11.78 5.5H10.31C9.98004 5.5 9.67004 5.63 9.44004 5.87C9.21004 6.1 9.08004 6.42 9.08004 6.75V9.25C9.08004 9.32 9.06004 9.38 9.01004 9.43C8.9876 9.45392 8.96049 9.47298 8.93039 9.48601C8.90029 9.49904 8.86784 9.50576 8.83504 9.50576C8.80225 9.50576 8.76979 9.49904 8.7397 9.48601C8.7096 9.47298 8.68249 9.45392 8.66004 9.43C8.63702 9.40614 8.61898 9.37794 8.60696 9.34703C8.59494 9.31613 8.58919 9.28315 8.59004 9.25V6.75C8.59004 6.42 8.46004 6.1 8.23004 5.87C8.11846 5.7543 7.98494 5.66198 7.83728 5.59846C7.68962 5.53493 7.53078 5.50146 7.37004 5.5H5.90004C5.83456 5.49981 5.76972 5.51301 5.70953 5.53881C5.64934 5.56461 5.59506 5.60245 5.55004 5.65C5.4595 5.74394 5.40926 5.86954 5.41004 6V10C5.41004 10.13 5.46004 10.26 5.55004 10.35C5.65004 10.45 5.77004 10.5 5.90004 10.5H7.86004Z" fill="white"/>
</svg>
