<svg width="585" height="462" viewBox="0 0 504 455" fill="none" xmlns="http://www.w3.org/2000/svg">
<g clip-path="url(#clip0_195_7788)">
<mask id="mask0_195_7788" style="mask-type:luminance" maskUnits="userSpaceOnUse" x="0" y="0" width="585" height="462">
<path d="M585 0H0V462H585V0Z" fill="white"/>
</mask>
<g mask="url(#mask0_195_7788)">
<path d="M272.64 44.296L277.515 31.202V44.296H279.487V28.3882H276.673L271.821 41.46L266.991 28.3882H264.088V44.296H266.082V31.202L270.934 44.296H272.64Z" fill="black"/>
<path d="M295.938 44.296L300.813 31.202V44.296H302.785V28.3882H299.971L295.119 41.46L290.289 28.3882H287.386V44.296H289.38V31.202L294.233 44.296H295.938Z" fill="black"/>
<path d="M389.13 44.296L394.005 31.202V44.296H395.977V28.3882H393.163L388.311 41.46L383.481 28.3882H380.578V44.296H382.572V31.202L387.424 44.296H389.13Z" fill="black"/>
<path d="M505.62 44.296L510.495 31.202V44.296H512.467V28.3882H509.653L504.801 41.46L499.971 28.3882H497.068V44.296H499.062V31.202L503.914 44.296H505.62Z" fill="black"/>
<path d="M109.554 71.696L114.429 58.602V71.696H116.401V55.7882H113.587L108.735 68.86L103.905 55.7882H101.002V71.696H102.996V58.602L107.848 71.696H109.554Z" fill="black"/>
<path d="M179.448 71.696L184.323 58.602V71.696H186.295V55.7882H183.481L178.629 68.86L173.799 55.7882H170.896V71.696H172.89V58.602L177.743 71.696H179.448Z" fill="black"/>
<path d="M272.64 71.696L277.515 58.602V71.696H279.487V55.7882H276.673L271.821 68.86L266.991 55.7882H264.088V71.696H266.082V58.602L270.934 71.696H272.64Z" fill="black"/>
<path d="M295.938 71.696L300.813 58.602V71.696H302.785V55.7882H299.971L295.119 68.86L290.289 55.7882H287.386V71.696H289.38V58.602L294.233 71.696H295.938Z" fill="black"/>
<path d="M319.236 71.696L324.111 58.602V71.696H326.083V55.7882H323.269L318.417 68.86L313.587 55.7882H310.684V71.696H312.678V58.602L317.531 71.696H319.236Z" fill="black"/>
<path d="M365.832 71.696L370.707 58.602V71.696H372.679V55.7882H369.865L365.013 68.86L360.183 55.7882H357.28V71.696H359.274V58.602L364.127 71.696H365.832Z" fill="black"/>
<path d="M412.428 71.696L417.303 58.602V71.696H419.275V55.7882H416.461L411.609 68.86L406.779 55.7882H403.876V71.696H405.87V58.602L410.723 71.696H412.428Z" fill="black"/>
<path d="M435.726 71.696L440.601 58.602V71.696H442.573V55.7882H439.759L434.907 68.86L430.077 55.7882H427.174V71.696H429.168V58.602L434.02 71.696H435.726Z" fill="black"/>
<path d="M459.024 71.696L463.899 58.602V71.696H465.871V55.7882H463.057L458.205 68.86L453.375 55.7882H450.472V71.696H452.466V58.602L457.318 71.696H459.024Z" fill="black"/>
<path d="M482.322 71.696L487.197 58.602V71.696H489.169V55.7882H486.355L481.503 68.86L476.673 55.7882H473.77V71.696H475.764V58.602L480.617 71.696H482.322Z" fill="black"/>
<path d="M505.62 71.696L510.495 58.602V71.696H512.467V55.7882H509.653L504.801 68.86L499.971 55.7882H497.068V71.696H499.062V58.602L503.914 71.696H505.62Z" fill="black"/>
<path d="M16.3624 98.096L21.2367 85.002V98.096H23.2085V82.1882H20.3947L15.5426 95.26L10.7128 82.1882H7.8103V98.096H9.80438V85.002L14.6565 98.096H16.3624Z" fill="black"/>
<path d="M39.6604 98.096L44.5347 85.002V98.096H46.5065V82.1882H43.6927L38.8406 95.26L34.0108 82.1882H31.1083V98.096H33.1024V85.002L37.9545 98.096H39.6604Z" fill="black"/>
<path d="M62.9584 98.096L67.8327 85.002V98.096H69.8046V82.1882H66.9908L62.1387 95.26L57.3088 82.1882H54.4063V98.096H56.4004V85.002L61.2525 98.096H62.9584Z" fill="black"/>
<path d="M132.852 98.096L137.727 85.002V98.096H139.699V82.1882H136.885L132.033 95.26L127.203 82.1882H124.3V98.096H126.294V85.002L131.147 98.096H132.852Z" fill="black"/>
<path d="M156.15 98.096L161.025 85.002V98.096H162.997V82.1882H160.183L155.331 95.26L150.501 82.1882H147.598V98.096H149.592V85.002L154.445 98.096H156.15Z" fill="black"/>
<path d="M179.448 98.096L184.323 85.002V98.096H186.295V82.1882H183.481L178.629 95.26L173.799 82.1882H170.896V98.096H172.89V85.002L177.743 98.096H179.448Z" fill="black"/>
<path d="M226.044 98.096L230.919 85.002V98.096H232.891V82.1882H230.077L225.225 95.26L220.395 82.1882H217.492V98.096H219.486V85.002L224.338 98.096H226.044Z" fill="black"/>
<path d="M249.342 98.096L254.217 85.002V98.096H256.189V82.1882H253.375L248.523 95.26L243.693 82.1882H240.79V98.096H242.784V85.002L247.636 98.096H249.342Z" fill="black"/>
<path d="M319.236 98.096L324.111 85.002V98.096H326.083V82.1882H323.269L318.417 95.26L313.587 82.1882H310.684V98.096H312.678V85.002L317.531 98.096H319.236Z" fill="black"/>
<path d="M342.534 98.096L347.409 85.002V98.096H349.381V82.1882H346.567L341.715 95.26L336.885 82.1882H333.982V98.096H335.976V85.002L340.828 98.096H342.534Z" fill="black"/>
<path d="M365.832 98.096L370.707 85.002V98.096H372.679V82.1882H369.865L365.013 95.26L360.183 82.1882H357.28V98.096H359.274V85.002L364.127 98.096H365.832Z" fill="black"/>
<path d="M389.13 98.096L394.005 85.002V98.096H395.977V82.1882H393.163L388.311 95.26L383.481 82.1882H380.578V98.096H382.572V85.002L387.424 98.096H389.13Z" fill="black"/>
<path d="M435.726 98.096L440.601 85.002V98.096H442.573V82.1882H439.759L434.907 95.26L430.077 82.1882H427.174V98.096H429.168V85.002L434.02 98.096H435.726Z" fill="black"/>
<path d="M459.024 98.096L463.899 85.002V98.096H465.871V82.1882H463.057L458.205 95.26L453.375 82.1882H450.472V98.096H452.466V85.002L457.318 98.096H459.024Z" fill="black"/>
<path d="M505.62 98.096L510.495 85.002V98.096H512.467V82.1882H509.653L504.801 95.26L499.971 82.1882H497.068V98.096H499.062V85.002L503.914 98.096H505.62Z" fill="black"/>
<path d="M319.236 124.496L324.111 111.402V124.496H326.083V108.588H323.269L318.417 121.66L313.587 108.588H310.684V124.496H312.678V111.402L317.531 124.496H319.236Z" fill="black"/>
<path d="M365.832 124.496L370.707 111.402V124.496H372.679V108.588H369.865L365.013 121.66L360.183 108.588H357.28V124.496H359.274V111.402L364.127 124.496H365.832Z" fill="black"/>
<path d="M412.428 124.496L417.303 111.402V124.496H419.275V108.588H416.461L411.609 121.66L406.779 108.588H403.876V124.496H405.87V111.402L410.723 124.496H412.428Z" fill="black"/>
<path d="M435.726 124.496L440.601 111.402V124.496H442.573V108.588H439.759L434.907 121.66L430.077 108.588H427.174V124.496H429.168V111.402L434.02 124.496H435.726Z" fill="black"/>
<path d="M459.024 124.496L463.899 111.402V124.496H465.871V108.588H463.057L458.205 121.66L453.375 108.588H450.472V124.496H452.466V111.402L457.318 124.496H459.024Z" fill="black"/>
<path d="M482.322 124.496L487.197 111.402V124.496H489.169V108.588H486.355L481.503 121.66L476.673 108.588H473.77V124.496H475.764V111.402L480.617 124.496H482.322Z" fill="black"/>
<path d="M505.62 124.496L510.495 111.402V124.496H512.467V108.588H509.653L504.801 121.66L499.971 108.588H497.068V124.496H499.062V111.402L503.914 124.496H505.62Z" fill="black"/>
<path d="M202.746 150.896L207.621 137.802V150.896H209.593V134.988H206.779L201.927 148.06L197.097 134.988H194.194V150.896H196.188V137.802L201.041 150.896H202.746Z" fill="black"/>
<path d="M226.044 150.896L230.919 137.802V150.896H232.891V134.988H230.077L225.225 148.06L220.395 134.988H217.492V150.896H219.486V137.802L224.338 150.896H226.044Z" fill="black"/>
<path d="M272.64 150.896L277.515 137.802V150.896H279.487V134.988H276.673L271.821 148.06L266.991 134.988H264.088V150.896H266.082V137.802L270.934 150.896H272.64Z" fill="black"/>
<path d="M295.938 150.896L300.813 137.802V150.896H302.785V134.988H299.971L295.119 148.06L290.289 134.988H287.386V150.896H289.38V137.802L294.233 150.896H295.938Z" fill="black"/>
<path d="M342.534 150.896L347.409 137.802V150.896H349.381V134.988H346.567L341.715 148.06L336.885 134.988H333.982V150.896H335.976V137.802L340.828 150.896H342.534Z" fill="black"/>
<path d="M365.832 150.896L370.707 137.802V150.896H372.679V134.988H369.865L365.013 148.06L360.183 134.988H357.28V150.896H359.274V137.802L364.127 150.896H365.832Z" fill="black"/>
<path d="M412.428 150.896L417.303 137.802V150.896H419.275V134.988H416.461L411.609 148.06L406.779 134.988H403.876V150.896H405.87V137.802L410.723 150.896H412.428Z" fill="black"/>
<path d="M435.726 150.896L440.601 137.802V150.896H442.573V134.988H439.759L434.907 148.06L430.077 134.988H427.174V150.896H429.168V137.802L434.02 150.896H435.726Z" fill="black"/>
<path d="M319.236 177.296L324.111 164.202V177.296H326.083V161.388H323.269L318.417 174.46L313.587 161.388H310.684V177.296H312.678V164.202L317.531 177.296H319.236Z" fill="black"/>
<path d="M412.428 177.296L417.303 164.202V177.296H419.275V161.388H416.461L411.609 174.46L406.779 161.388H403.876V177.296H405.87V164.202L410.723 177.296H412.428Z" fill="black"/>
<path d="M459.024 177.296L463.899 164.202V177.296H465.871V161.388H463.057L458.205 174.46L453.375 161.388H450.472V177.296H452.466V164.202L457.318 177.296H459.024Z" fill="black"/>
<path d="M272.64 203.696L277.515 190.602V203.696H279.487V187.788H276.673L271.821 200.86L266.991 187.788H264.088V203.696H266.082V190.602L270.934 203.696H272.64Z" fill="black"/>
<path d="M295.938 203.696L300.813 190.602V203.696H302.785V187.788H299.971L295.119 200.86L290.289 187.788H287.386V203.696H289.38V190.602L294.233 203.696H295.938Z" fill="black"/>
<path d="M459.024 203.696L463.899 190.602V203.696H465.871V187.788H463.057L458.205 200.86L453.375 187.788H450.472V203.696H452.466V190.602L457.318 203.696H459.024Z" fill="black"/>
<path d="M226.044 230.096L230.919 217.002V230.096H232.891V214.188H230.077L225.225 227.26L220.395 214.188H217.492V230.096H219.486V217.002L224.338 230.096H226.044Z" fill="black"/>
<path d="M295.938 230.096L300.813 217.002V230.096H302.785V214.188H299.971L295.119 227.26L290.289 214.188H287.386V230.096H289.38V217.002L294.233 230.096H295.938Z" fill="black"/>
<path d="M319.236 230.096L324.111 217.002V230.096H326.083V214.188H323.269L318.417 227.26L313.587 214.188H310.684V230.096H312.678V217.002L317.531 230.096H319.236Z" fill="black"/>
<path d="M342.534 230.096L347.409 217.002V230.096H349.381V214.188H346.567L341.715 227.26L336.885 214.188H333.982V230.096H335.976V217.002L340.828 230.096H342.534Z" fill="black"/>
<path d="M389.13 230.096L394.005 217.002V230.096H395.977V214.188H393.163L388.311 227.26L383.481 214.188H380.578V230.096H382.572V217.002L387.424 230.096H389.13Z" fill="black"/>
<path d="M459.024 230.096L463.899 217.002V230.096H465.871V214.188H463.057L458.205 227.26L453.375 214.188H450.472V230.096H452.466V217.002L457.318 230.096H459.024Z" fill="black"/>
<path d="M505.62 230.096L510.495 217.002V230.096H512.467V214.188H509.653L504.801 227.26L499.971 214.188H497.068V230.096H499.062V217.002L503.914 230.096H505.62Z" fill="black"/>
<path d="M156.15 256.496L161.025 243.402V256.496H162.997V240.588H160.183L155.331 253.66L150.501 240.588H147.598V256.496H149.592V243.402L154.445 256.496H156.15Z" fill="black"/>
<path d="M272.64 256.496L277.515 243.402V256.496H279.487V240.588H276.673L271.821 253.66L266.991 240.588H264.088V256.496H266.082V243.402L270.934 256.496H272.64Z" fill="black"/>
<path d="M295.938 256.496L300.813 243.402V256.496H302.785V240.588H299.971L295.119 253.66L290.289 240.588H287.386V256.496H289.38V243.402L294.233 256.496H295.938Z" fill="black"/>
<path d="M319.236 256.496L324.111 243.402V256.496H326.083V240.588H323.269L318.417 253.66L313.587 240.588H310.684V256.496H312.678V243.402L317.531 256.496H319.236Z" fill="black"/>
<path d="M505.62 256.496L510.495 243.402V256.496H512.467V240.588H509.653L504.801 253.66L499.971 240.588H497.068V256.496H499.062V243.402L503.914 256.496H505.62Z" fill="black"/>
<path d="M62.9584 282.896L67.8327 269.802V282.896H69.8046V266.988H66.9908L62.1387 280.06L57.3088 266.988H54.4063V282.896H56.4004V269.802L61.2525 282.896H62.9584Z" fill="black"/>
<path d="M86.2564 282.896L91.1307 269.802V282.896H93.1026V266.988H90.2888L85.4367 280.06L80.6068 266.988H77.7043V282.896H79.6984V269.802L84.5505 282.896H86.2564Z" fill="black"/>
<path d="M156.15 282.896L161.025 269.802V282.896H162.997V266.988H160.183L155.331 280.06L150.501 266.988H147.598V282.896H149.592V269.802L154.445 282.896H156.15Z" fill="black"/>
<path d="M179.448 282.896L184.323 269.802V282.896H186.295V266.988H183.481L178.629 280.06L173.799 266.988H170.896V282.896H172.89V269.802L177.743 282.896H179.448Z" fill="black"/>
<path d="M202.746 282.896L207.621 269.802V282.896H209.593V266.988H206.779L201.927 280.06L197.097 266.988H194.194V282.896H196.188V269.802L201.041 282.896H202.746Z" fill="black"/>
<path d="M249.342 282.896L254.217 269.802V282.896H256.189V266.988H253.375L248.523 280.06L243.693 266.988H240.79V282.896H242.784V269.802L247.636 282.896H249.342Z" fill="black"/>
<path d="M272.64 282.896L277.515 269.802V282.896H279.487V266.988H276.673L271.821 280.06L266.991 266.988H264.088V282.896H266.082V269.802L270.934 282.896H272.64Z" fill="black"/>
<path d="M319.236 282.896L324.111 269.802V282.896H326.083V266.988H323.269L318.417 280.06L313.587 266.988H310.684V282.896H312.678V269.802L317.531 282.896H319.236Z" fill="black"/>
<path d="M342.534 282.896L347.409 269.802V282.896H349.381V266.988H346.567L341.715 280.06L336.885 266.988H333.982V282.896H335.976V269.802L340.828 282.896H342.534Z" fill="black"/>
<path d="M389.13 282.896L394.005 269.802V282.896H395.977V266.988H393.163L388.311 280.06L383.481 266.988H380.578V282.896H382.572V269.802L387.424 282.896H389.13Z" fill="black"/>
<path d="M459.024 282.896L463.899 269.802V282.896H465.871V266.988H463.057L458.205 280.06L453.375 266.988H450.472V282.896H452.466V269.802L457.318 282.896H459.024Z" fill="black"/>
<path d="M482.322 282.896L487.197 269.802V282.896H489.169V266.988H486.355L481.503 280.06L476.673 266.988H473.77V282.896H475.764V269.802L480.617 282.896H482.322Z" fill="black"/>
<path d="M319.236 309.296L324.111 296.202V309.296H326.083V293.388H323.269L318.417 306.46L313.587 293.388H310.684V309.296H312.678V296.202L317.531 309.296H319.236Z" fill="black"/>
<path d="M342.534 309.296L347.409 296.202V309.296H349.381V293.388H346.567L341.715 306.46L336.885 293.388H333.982V309.296H335.976V296.202L340.828 309.296H342.534Z" fill="black"/>
<path d="M389.13 309.296L394.005 296.202V309.296H395.977V293.388H393.163L388.311 306.46L383.481 293.388H380.578V309.296H382.572V296.202L387.424 309.296H389.13Z" fill="black"/>
<path d="M435.726 309.296L440.601 296.202V309.296H442.573V293.388H439.759L434.907 306.46L430.077 293.388H427.174V309.296H429.168V296.202L434.02 309.296H435.726Z" fill="black"/>
<path d="M459.024 309.296L463.899 296.202V309.296H465.871V293.388H463.057L458.205 306.46L453.375 293.388H450.472V309.296H452.466V296.202L457.318 309.296H459.024Z" fill="black"/>
<path d="M482.322 309.296L487.197 296.202V309.296H489.169V293.388H486.355L481.503 306.46L476.673 293.388H473.77V309.296H475.764V296.202L480.617 309.296H482.322Z" fill="black"/>
<path d="M319.236 335.696L324.111 322.602V335.696H326.083V319.788H323.269L318.417 332.86L313.587 319.788H310.684V335.696H312.678V322.602L317.531 335.696H319.236Z" fill="black"/>
<path d="M365.832 335.696L370.707 322.602V335.696H372.679V319.788H369.865L365.013 332.86L360.183 319.788H357.28V335.696H359.274V322.602L364.127 335.696H365.832Z" fill="black"/>
<path d="M505.62 335.696L510.495 322.602V335.696H512.467V319.788H509.653L504.801 332.86L499.971 319.788H497.068V335.696H499.062V322.602L503.914 335.696H505.62Z" fill="black"/>
<path d="M109.554 362.096L114.429 349.002V362.096H116.401V346.188H113.587L108.735 359.26L103.905 346.188H101.002V362.096H102.996V349.002L107.848 362.096H109.554Z" fill="black"/>
<path d="M156.15 362.096L161.025 349.002V362.096H162.997V346.188H160.183L155.331 359.26L150.501 346.188H147.598V362.096H149.592V349.002L154.445 362.096H156.15Z" fill="black"/>
<path d="M179.448 362.096L184.323 349.002V362.096H186.295V346.188H183.481L178.629 359.26L173.799 346.188H170.896V362.096H172.89V349.002L177.743 362.096H179.448Z" fill="black"/>
<path d="M249.342 362.096L254.217 349.002V362.096H256.189V346.188H253.375L248.523 359.26L243.693 346.188H240.79V362.096H242.784V349.002L247.636 362.096H249.342Z" fill="black"/>
<path d="M272.64 362.096L277.515 349.002V362.096H279.487V346.188H276.673L271.821 359.26L266.991 346.188H264.088V362.096H266.082V349.002L270.934 362.096H272.64Z" fill="black"/>
<path d="M295.938 362.096L300.813 349.002V362.096H302.785V346.188H299.971L295.119 359.26L290.289 346.188H287.386V362.096H289.38V349.002L294.233 362.096H295.938Z" fill="black"/>
<path d="M342.534 362.096L347.409 349.002V362.096H349.381V346.188H346.567L341.715 359.26L336.885 346.188H333.982V362.096H335.976V349.002L340.828 362.096H342.534Z" fill="black"/>
<path d="M482.322 362.096L487.197 349.002V362.096H489.169V346.188H486.355L481.503 359.26L476.673 346.188H473.77V362.096H475.764V349.002L480.617 362.096H482.322Z" fill="black"/>
<path d="M342.534 388.496L347.409 375.402V388.496H349.381V372.588H346.567L341.715 385.66L336.885 372.588H333.982V388.496H335.976V375.402L340.828 388.496H342.534Z" fill="black"/>
<path d="M435.726 388.496L440.601 375.402V388.496H442.573V372.588H439.759L434.907 385.66L430.077 372.588H427.174V388.496H429.168V375.402L434.02 388.496H435.726Z" fill="black"/>
<path d="M482.322 388.496L487.197 375.402V388.496H489.169V372.588H486.355L481.503 385.66L476.673 372.588H473.77V388.496H475.764V375.402L480.617 388.496H482.322Z" fill="black"/>
<path d="M505.62 388.496L510.495 375.402V388.496H512.467V372.588H509.653L504.801 385.66L499.971 372.588H497.068V388.496H499.062V375.402L503.914 388.496H505.62Z" fill="black"/>
<path d="M202.746 414.896L207.621 401.802V414.896H209.593V398.988H206.779L201.927 412.06L197.097 398.988H194.194V414.896H196.188V401.802L201.041 414.896H202.746Z" fill="black"/>
<path d="M319.236 414.896L324.111 401.802V414.896H326.083V398.988H323.269L318.417 412.06L313.587 398.988H310.684V414.896H312.678V401.802L317.531 414.896H319.236Z" fill="black"/>
<path d="M342.534 414.896L347.409 401.802V414.896H349.381V398.988H346.567L341.715 412.06L336.885 398.988H333.982V414.896H335.976V401.802L340.828 414.896H342.534Z" fill="black"/>
<path d="M389.13 414.896L394.005 401.802V414.896H395.977V398.988H393.163L388.311 412.06L383.481 398.988H380.578V414.896H382.572V401.802L387.424 414.896H389.13Z" fill="black"/>
<path d="M435.726 414.896L440.601 401.802V414.896H442.573V398.988H439.759L434.907 412.06L430.077 398.988H427.174V414.896H429.168V401.802L434.02 414.896H435.726Z" fill="black"/>
<path d="M505.62 414.896L510.495 401.802V414.896H512.467V398.988H509.653L504.801 412.06L499.971 398.988H497.068V414.896H499.062V401.802L503.914 414.896H505.62Z" fill="black"/>
<path d="M249.342 441.296L254.217 428.202V441.296H256.189V425.388H253.375L248.523 438.46L243.693 425.388H240.79V441.296H242.784V428.202L247.636 441.296H249.342Z" fill="black"/>
<path d="M295.938 441.296L300.813 428.202V441.296H302.785V425.388H299.971L295.119 438.46L290.289 425.388H287.386V441.296H289.38V428.202L294.233 441.296H295.938Z" fill="black"/>
<path d="M365.832 441.296L370.707 428.202V441.296H372.679V425.388H369.865L365.013 438.46L360.183 425.388H357.28V441.296H359.274V428.202L364.127 441.296H365.832Z" fill="black"/>
<path d="M389.13 441.296L394.005 428.202V441.296H395.977V425.388H393.163L388.311 438.46L383.481 425.388H380.578V441.296H382.572V428.202L387.424 441.296H389.13Z" fill="black"/>
<path d="M435.726 441.296L440.601 428.202V441.296H442.573V425.388H439.759L434.907 438.46L430.077 425.388H427.174V441.296H429.168V428.202L434.02 441.296H435.726Z" fill="black"/>
<path d="M459.024 441.296L463.899 428.202V441.296H465.871V425.388H463.057L458.205 438.46L453.375 425.388H450.472V441.296H452.466V428.202L457.318 441.296H459.024Z" fill="black"/>
</g>
</g>
<defs>
<clipPath id="clip0_195_7788">
<rect width="585" height="462" fill="white"/>
</clipPath>
</defs>
</svg>
