<svg width="143" height="22" viewBox="0 0 143 22" fill="none" xmlns="http://www.w3.org/2000/svg">
<path d="M21.4502 11.1153C21.4502 17.0212 16.6952 21.8092 10.8295 21.8092C4.96377 21.8092 0.209167 17.0227 0.209167 11.1153C0.209167 5.20796 4.96413 0.421847 10.8295 0.421847C16.6949 0.421847 21.4502 5.20941 21.4502 11.1153ZM33.1012 11.1153C33.1012 16.675 30.7235 21.1816 27.7909 21.1816C24.8582 21.1816 22.4805 16.6736 22.4805 11.1153C22.4805 5.55707 24.8582 1.04901 27.7909 1.04901C30.7235 1.04901 33.1012 5.55707 33.1012 11.1153ZM37.8666 11.1153C37.8666 16.0965 37.0303 20.1343 35.9989 20.1343C34.9675 20.1343 34.1312 16.0951 34.1312 11.1153C34.1312 6.13554 34.9675 2.09632 35.9993 2.09632C37.031 2.09632 37.8666 6.13446 37.8666 11.1153ZM67.1779 1.34906L67.2075 1.34257V1.11356H61.1676L55.5594 14.2951L49.9511 1.11356H43.4424V1.34257L43.4716 1.34906C44.5741 1.59791 45.1338 1.96901 45.1338 3.30737V18.9756C45.1338 20.3139 44.5719 20.685 43.4694 20.9339L43.4402 20.9404V21.1701H47.8562V20.9411L47.827 20.9346C46.7245 20.6857 46.1648 20.3146 46.1648 18.9763V4.21619L53.3692 21.1701H53.7778L61.1921 3.74338V19.3633C61.0976 20.4203 60.543 20.7467 59.5447 20.9721L59.5152 20.979V21.2062H67.2075V20.979L67.1779 20.9721C66.1786 20.7467 65.6106 20.4203 65.5161 19.3633L65.5111 3.30737H65.5161C65.5161 1.96901 66.0758 1.59791 67.1779 1.34906ZM70.6916 11.7284C70.8174 8.91323 71.8283 6.88135 73.5247 6.84637C74.048 6.85503 74.4869 7.02669 74.8281 7.35704C75.5529 8.06066 75.8937 9.53101 75.8411 11.7284H70.6916ZM70.6155 12.5218H79.6314V12.484C79.6058 10.3313 78.9822 8.65681 77.7799 7.50707C76.7405 6.5135 75.2017 5.96676 73.5853 5.96676H73.5492C72.7104 5.96676 71.6815 6.17016 70.9494 6.53874C70.116 6.92463 69.381 7.50166 68.7694 8.25902C67.7849 9.47908 67.1884 11.1279 67.0434 12.9809C67.0387 13.0365 67.0347 13.092 67.0308 13.1476C67.0268 13.2031 67.0243 13.2529 67.0218 13.3059C67.0089 13.5664 67.0046 13.8273 67.0088 14.0881C67.1065 18.2849 69.3735 21.6389 73.3999 21.6389C76.9342 21.6389 78.9923 19.0553 79.5055 15.5873L79.2462 15.4961C78.3446 17.3599 76.7254 18.4894 74.8825 18.3517C72.3667 18.1634 70.4395 15.6126 70.6144 12.5226M89.825 18.2092C89.5293 18.9107 88.9123 19.2965 88.0853 19.2965C87.2584 19.2965 86.5025 18.7289 85.9655 17.6974C85.3885 16.5903 85.0849 15.0251 85.0849 13.171C85.0849 9.3121 86.2851 6.81608 88.1427 6.81608C88.9206 6.81608 89.5329 7.20197 89.825 7.87529V18.2092ZM95.8058 20.9602C94.7034 20.6995 94.1436 20.311 94.1436 18.9045V0.190674L87.4456 2.16412V2.40575L87.4867 2.40251C88.4106 2.32785 89.0374 2.45552 89.4013 2.79164C89.6862 3.05491 89.825 3.45884 89.825 4.02721V6.59284C89.1647 6.17124 88.3793 5.96604 87.4261 5.96604C85.4931 5.96604 83.7264 6.78001 82.4522 8.2583C81.124 9.79897 80.4219 11.9044 80.4219 14.3463C80.4215 18.7076 82.5684 21.6389 85.7636 21.6389C87.6327 21.6389 89.1366 20.6147 89.825 18.8872V21.2062H95.835V20.966L95.8058 20.9602ZM101.55 2.73574C101.55 1.37395 100.524 0.346833 99.1615 0.346833C97.8059 0.346833 96.7453 1.39631 96.7453 2.73574C96.7453 4.07518 97.807 5.12465 99.1615 5.12465C100.524 5.12465 101.55 4.09754 101.55 2.73574ZM103.131 20.9602C102.029 20.6995 101.469 20.311 101.469 18.9045H101.465V6.0104L95.4542 7.73608V7.9705L95.4903 7.97375C96.7907 8.08951 97.1467 8.53743 97.1467 10.0572V21.2062H103.162V20.966L103.131 20.9602ZM118.532 20.9602C117.43 20.6995 116.87 20.311 116.87 18.9045V6.0104L111.148 7.6791V7.91424L111.181 7.91785C112.245 8.02965 112.552 8.50317 112.552 10.0298V18.1804C112.197 18.8818 111.532 19.2983 110.727 19.3265C109.42 19.3265 108.701 18.444 108.701 16.8416V6.01076L102.69 7.73644V7.9705L102.726 7.97375C104.027 8.08915 104.383 8.53707 104.383 10.0572V16.9552C104.38 17.4368 104.422 17.9176 104.508 18.3913L104.616 18.862C105.125 20.6854 106.459 21.6389 108.547 21.6389C110.317 21.6389 111.867 20.5437 112.55 18.8299V21.2101H118.561V20.9699L118.532 20.9602ZM141.881 21.2062V20.9656L141.852 20.9588C140.655 20.6829 140.189 20.1628 140.189 19.104V10.3331C140.189 7.59832 138.654 5.96604 136.081 5.96604C134.205 5.96604 132.624 7.04978 132.015 8.73795C131.532 6.94916 130.14 5.96604 128.082 5.96604C126.275 5.96604 124.858 6.91994 124.251 8.5313V6.01148L118.24 7.66648V7.90234L118.276 7.90558C119.561 8.01955 119.933 8.48045 119.933 9.96126V21.2062H125.54V20.966L125.511 20.9588C124.557 20.7344 124.249 20.3255 124.249 19.276V9.22266C124.501 8.63301 125.01 7.93444 126.016 7.93444C127.265 7.93444 127.898 8.79998 127.898 10.5051V21.2062H133.508V20.966L133.478 20.9588C132.524 20.7344 132.216 20.3255 132.216 19.276V10.332C132.218 9.99758 132.192 9.66357 132.136 9.33374C132.404 8.69287 132.942 7.93444 133.989 7.93444C135.256 7.93444 135.872 8.7751 135.872 10.5051V21.2062H141.881Z" fill="white"/>
</svg>
