<svg width="24" height="25" viewBox="0 0 24 25" fill="none" xmlns="http://www.w3.org/2000/svg">
<path fill-rule="evenodd" clip-rule="evenodd" d="M11.3699 1.50977L11.9999 3.95977L12.6299 1.50977H11.3699ZM13.9199 4.62977L15.4399 2.52977L14.2599 2.12977L13.9199 4.62977ZM8.58988 2.51977L10.1099 4.62977L9.76988 2.12977L8.58988 2.52977V2.51977ZM18.5199 19.5998C17.8335 20.3419 16.9041 20.8137 15.8999 20.9298L16.3099 20.5598C18.6999 18.1598 19.1699 15.6098 17.7099 12.9298L16.7999 11.3298L15.9999 9.65977C15.7499 9.09977 15.8099 8.67977 16.2099 8.36977C16.2875 8.31106 16.3765 8.26918 16.4712 8.24679C16.5659 8.22441 16.6642 8.22202 16.7599 8.23977C17.0399 8.28977 17.2999 8.46977 17.4799 8.73977L19.8499 12.8998C20.8199 14.5198 20.9899 17.1298 18.5199 19.5998ZM7.51988 19.1598L3.36988 15.0098C3.23472 14.8509 3.16433 14.647 3.17272 14.4386C3.18111 14.2301 3.26766 14.0325 3.41515 13.885C3.56264 13.7375 3.76025 13.651 3.96867 13.6426C4.17708 13.6342 4.38101 13.7046 4.53988 13.8398L6.69988 15.9998C6.7716 16.0486 6.85823 16.0707 6.9446 16.0622C7.03096 16.0537 7.11158 16.015 7.17236 15.9531C7.23313 15.8911 7.27018 15.8097 7.27704 15.7232C7.2839 15.6367 7.26013 15.5505 7.20988 15.4798L5.05988 13.3198L3.59988 11.8798C3.46472 11.7209 3.39433 11.517 3.40272 11.3086C3.41111 11.1001 3.49766 10.9025 3.64515 10.755C3.79264 10.6075 3.99025 10.521 4.19867 10.5126C4.40708 10.5042 4.61101 10.5746 4.76988 10.7098L8.19988 14.1498C8.23348 14.1849 8.27384 14.2128 8.31853 14.2319C8.36321 14.2509 8.41129 14.2608 8.45988 14.2608C8.50846 14.2608 8.55655 14.2509 8.60123 14.2319C8.64591 14.2128 8.68627 14.1849 8.71988 14.1498C8.75497 14.1162 8.78289 14.0758 8.80197 14.0311C8.82105 13.9864 8.83088 13.9384 8.83088 13.8898C8.83088 13.8412 8.82105 13.7931 8.80197 13.7484C8.78289 13.7037 8.75497 13.6634 8.71988 13.6298L5.28988 10.1898L4.31988 9.21977C4.1684 9.0647 4.08359 8.85654 4.08359 8.63977C4.08359 8.423 4.1684 8.21483 4.31988 8.05977C4.47662 7.90765 4.68646 7.82257 4.90488 7.82257C5.1233 7.82257 5.33313 7.90765 5.48988 8.05977L6.45988 9.02977L9.89988 12.4598C9.93332 12.4933 9.97306 12.52 10.0168 12.5381C10.0606 12.5563 10.1075 12.5656 10.1549 12.5656C10.2023 12.5656 10.2492 12.5563 10.2929 12.5381C10.3367 12.52 10.3764 12.4933 10.4099 12.4598C10.4783 12.3905 10.5166 12.2971 10.5166 12.1998C10.5166 12.1024 10.4783 12.009 10.4099 11.9398L6.97988 8.50977C6.86354 8.39481 6.78424 8.24769 6.75216 8.08731C6.72009 7.92693 6.73671 7.76063 6.79988 7.60977C6.86151 7.45884 6.96673 7.32971 7.1021 7.23887C7.23747 7.14802 7.39685 7.0996 7.55988 7.09977C7.77988 7.09977 7.98988 7.18977 8.13988 7.33977L13.9399 13.1298C14.0031 13.1818 14.0818 13.2115 14.1636 13.214C14.2455 13.2166 14.3259 13.1919 14.3922 13.1439C14.4585 13.0959 14.507 13.0272 14.5301 12.9486C14.5532 12.8701 14.5496 12.7861 14.5199 12.7098L13.3999 10.3498C13.1399 9.78977 13.1999 9.36977 13.5999 9.05977C13.6775 9.00106 13.7665 8.95918 13.8612 8.93679C13.9559 8.91441 14.0542 8.91202 14.1499 8.92977C14.4299 8.97977 14.6999 9.15977 14.8799 9.42977L17.0799 13.2898C18.3799 15.6698 17.9499 17.8798 15.7899 20.0398C15.2593 20.5969 14.5988 21.0137 13.8675 21.2528C13.1363 21.4919 12.3571 21.5459 11.5999 21.4098C10.0444 21.0953 8.62343 20.3098 7.52988 19.1598H7.51988ZM10.7499 6.65977L12.8699 8.76977C12.4599 9.26977 12.3999 9.93977 12.7399 10.6698L12.9599 11.1298L9.43988 7.59977C9.37895 7.4892 9.3447 7.36592 9.33988 7.23977C9.33988 7.00977 9.42988 6.80977 9.57988 6.64977C9.73781 6.49995 9.94719 6.41643 10.1649 6.41643C10.3826 6.41643 10.592 6.49995 10.7499 6.64977V6.65977ZM18.1099 8.35977C17.9738 8.14256 17.7943 7.95582 17.5826 7.81127C17.371 7.66672 17.1317 7.56748 16.8799 7.51977C16.6847 7.48525 16.4844 7.49142 16.2917 7.53788C16.099 7.58434 15.9179 7.67009 15.7599 7.78977C15.4599 8.02977 15.2599 8.33977 15.1799 8.67977C14.9299 8.42977 14.6099 8.27977 14.2699 8.20977C13.9899 8.16977 13.7099 8.20977 13.4499 8.30977L11.2699 6.12977C10.9776 5.83909 10.5821 5.67593 10.1699 5.67593C9.75765 5.67593 9.36218 5.83909 9.06988 6.12977C8.86988 6.32977 8.73988 6.56977 8.66988 6.82977C8.47331 6.63104 8.22697 6.48878 7.9566 6.41786C7.68623 6.34694 7.40177 6.34997 7.13297 6.42662C6.86417 6.50327 6.62091 6.65074 6.42861 6.8536C6.23632 7.05646 6.10206 7.30726 6.03988 7.57977C5.74649 7.28418 5.3494 7.11464 4.933 7.10717C4.51659 7.0997 4.11368 7.25489 3.80988 7.53977C3.5192 7.83207 3.35604 8.22754 3.35604 8.63977C3.35604 9.05199 3.5192 9.44746 3.80988 9.73977C3.56988 9.83977 3.30988 9.97977 3.08988 10.1898C2.7992 10.4821 2.63604 10.8775 2.63604 11.2898C2.63604 11.702 2.7992 12.0975 3.08988 12.3898L3.60988 12.9098C3.3413 12.9741 3.09461 13.1085 2.895 13.2994C2.6954 13.4902 2.55003 13.7306 2.47376 13.9961C2.39749 14.2615 2.39305 14.5424 2.46088 14.8101C2.52872 15.0778 2.66641 15.3227 2.85988 15.5198L6.99988 19.6798C8.20523 20.9384 9.76985 21.794 11.4799 22.1298C12.6242 22.3455 13.8079 22.1694 14.8399 21.6298C15.6095 21.7294 16.3919 21.6445 17.1222 21.3819C17.8525 21.1193 18.5099 20.6867 19.0399 20.1198C21.7899 17.3498 21.5799 14.3798 20.4699 12.5298L18.0999 8.35977H18.1099Z" fill="#6B6B6B"/>
</svg>
