<svg width="25" height="25" viewBox="0 0 25 25" fill="none" xmlns="http://www.w3.org/2000/svg">
<g clip-path="url(#clip0_1_8722)">
<path fill-rule="evenodd" clip-rule="evenodd" d="M15.3196 5.74C15.2893 5.79136 15.2484 5.83568 15.1996 5.87H15.2096C15.125 5.92914 15.0226 5.95739 14.9196 5.95C14.8082 5.94005 14.703 5.89446 14.6196 5.82L12.5996 3.81V10.88C12.5996 11.0126 12.5469 11.1398 12.4532 11.2336C12.3594 11.3273 12.2322 11.38 12.0996 11.38C11.967 11.38 11.8398 11.3273 11.7461 11.2336C11.6523 11.1398 11.5996 11.0126 11.5996 10.88V3.83L9.59961 5.83C9.52393 5.90163 9.42573 5.94478 9.32177 5.95207C9.21782 5.95937 9.11456 5.93036 9.02961 5.87H9.00961C8.96254 5.83481 8.9238 5.78969 8.89615 5.73784C8.86849 5.68599 8.8526 5.62868 8.84961 5.57C8.84213 5.5126 8.8472 5.45426 8.86447 5.39901C8.88173 5.34377 8.91078 5.29292 8.94961 5.25L11.7496 2.45C11.8431 2.35838 11.9687 2.30707 12.0996 2.30707C12.2305 2.30707 12.3561 2.35838 12.4496 2.45L15.2496 5.25C15.3139 5.31448 15.3555 5.39812 15.3681 5.4883C15.3807 5.57849 15.3637 5.67033 15.3196 5.75V5.74ZM16.0996 7.88H17.5996C18.13 7.88 18.6388 8.09071 19.0138 8.46578C19.3889 8.84086 19.5996 9.34956 19.5996 9.88V19.88C19.5996 20.4104 19.3889 20.9191 19.0138 21.2942C18.6388 21.6693 18.13 21.88 17.5996 21.88H6.59961C6.06918 21.88 5.56047 21.6693 5.1854 21.2942C4.81032 20.9191 4.59961 20.4104 4.59961 19.88V9.88C4.59961 9.34956 4.81032 8.84086 5.1854 8.46578C5.56047 8.09071 6.06918 7.88 6.59961 7.88H8.09961C8.23007 7.87921 8.35568 7.92945 8.44961 8.02C8.54961 8.12 8.59961 8.24 8.59961 8.37C8.59773 8.50188 8.54382 8.62768 8.44961 8.72C8.35729 8.8142 8.23149 8.86812 8.09961 8.87H6.49961C5.99961 8.87 5.59961 9.27 5.59961 9.77V19.97C5.59961 20.2087 5.69443 20.4376 5.86321 20.6064C6.032 20.7752 6.26091 20.87 6.49961 20.87H17.6996C18.1996 20.87 18.5996 20.47 18.5996 19.97V9.77C18.5996 9.27 18.1996 8.87 17.6996 8.87H16.0996C15.967 8.87 15.8398 8.81732 15.7461 8.72355C15.6523 8.62978 15.5996 8.5026 15.5996 8.37C15.5996 8.23739 15.6523 8.11021 15.7461 8.01644C15.8398 7.92268 15.967 7.87 16.0996 7.87V7.88Z" fill="#6B6B6B"/>
</g>
<defs>
<clipPath id="clip0_1_8722">
<rect width="24" height="24" fill="white" transform="translate(0.0996094 0.809998)"/>
</clipPath>
</defs>
</svg>
