<svg width="17" height="17" viewBox="0 0 17 17" fill="none" xmlns="http://www.w3.org/2000/svg">
<path d="M10.3201 10.7475L8.87757 14.715C8.84265 14.8109 8.77906 14.8938 8.69543 14.9524C8.61179 15.0109 8.51217 15.0423 8.41007 15.0423C8.30797 15.0423 8.20834 15.0109 8.12471 14.9524C8.04108 14.8938 7.97749 14.8109 7.94257 14.715L6.50007 10.7475C6.47482 10.6787 6.4349 10.6163 6.3831 10.5645C6.3313 10.5127 6.26884 10.4727 6.20007 10.4475L2.23507 9.01C2.13913 8.97508 2.05625 8.91149 1.99769 8.82785C1.93913 8.74422 1.90771 8.64459 1.90771 8.5425C1.90771 8.4404 1.93913 8.34077 1.99769 8.25714C2.05625 8.1735 2.13913 8.10991 2.23507 8.075L6.20257 6.6325C6.27134 6.60725 6.3338 6.56733 6.3856 6.51553C6.4374 6.46372 6.47732 6.40127 6.50257 6.3325L7.94007 2.365C7.97499 2.26905 8.03858 2.18618 8.12221 2.12762C8.20584 2.06906 8.30547 2.03764 8.40757 2.03764C8.50967 2.03764 8.60929 2.06906 8.69293 2.12762C8.77656 2.18618 8.84015 2.26905 8.87507 2.365L10.3176 6.3325C10.3428 6.40127 10.3827 6.46372 10.4345 6.51553C10.4863 6.56733 10.5488 6.60725 10.6176 6.6325L14.5826 8.0725C14.6785 8.10741 14.7614 8.17101 14.8199 8.25464C14.8785 8.33827 14.9099 8.4379 14.9099 8.54C14.9099 8.64209 14.8785 8.74172 14.8199 8.82535C14.7614 8.90899 14.6785 8.97258 14.5826 9.0075L10.6151 10.45C10.5463 10.4752 10.4838 10.5152 10.432 10.567C10.3802 10.6188 10.3403 10.6812 10.3151 10.75L10.3201 10.7475Z" fill="#FFC017"/>
</svg>
