<svg width="30" height="29" viewBox="0 0 30 29" fill="none" xmlns="http://www.w3.org/2000/svg">
<path d="M22.9477 7.54002C22.532 7.08068 22.0257 6.7136 21.4612 6.46222C20.8966 6.21083 20.2862 6.08067 19.6689 6.08002C18.4751 6.08002 17.3303 6.55728 16.4862 7.40682C15.6421 8.25636 15.1679 9.40859 15.1679 10.61C15.1679 10.96 15.2077 11.31 15.2474 11.66C13.4618 11.5578 11.7172 11.0806 10.1258 10.2591C8.53435 9.43758 7.13139 8.28996 6.00709 6.89002C5.61983 7.58243 5.39868 8.35633 5.36127 9.15002C5.39107 10.75 6.18594 12.14 7.3683 12.94C6.66278 12.9198 5.97323 12.724 5.36127 12.37V12.45C5.36492 13.4943 5.72535 14.5055 6.38208 15.3139C7.0388 16.1224 7.95184 16.6789 8.96797 16.89C8.57054 16.97 8.1731 17.02 7.76574 17.05L6.96093 16.97C7.24668 17.8654 7.80165 18.6494 8.54919 19.2137C9.29672 19.7779 10.1999 20.0946 11.134 20.12C9.51395 21.3556 7.54282 22.0356 5.5103 22.06L4.46704 21.98C6.45421 23.25 8.81893 24 11.3625 24C19.6092 24 24.14 17.1 24.1201 11.15C24.14 10.91 24.1201 10.72 24.1201 10.5C25.0084 9.86942 25.7703 9.07548 26.3656 8.16002C25.5509 8.54002 24.6765 8.78002 23.7823 8.88002C24.7183 8.31777 25.4099 7.42179 25.7198 6.37002C24.8852 6.90002 23.9214 7.27002 22.9079 7.50002L22.9477 7.54002Z" fill="#38A1F3"/>
</svg>
