<svg width="24" height="24" viewBox="0 0 24 24" fill="none" xmlns="http://www.w3.org/2000/svg">
<path d="M17.5 1.25C17.5 1.11739 17.5527 0.990215 17.6464 0.896447C17.7402 0.802678 17.8674 0.75 18 0.75C18.1326 0.75 18.2598 0.802678 18.3536 0.896447C18.4473 0.990215 18.5 1.11739 18.5 1.25V3.75H21C21.1326 3.75 21.2598 3.80268 21.3536 3.89645C21.4473 3.99021 21.5 4.11739 21.5 4.25C21.5 4.38261 21.4473 4.50979 21.3536 4.60355C21.2598 4.69732 21.1326 4.75 21 4.75H18.5V7.25C18.5 7.38261 18.4473 7.50979 18.3536 7.60355C18.2598 7.69732 18.1326 7.75 18 7.75C17.8674 7.75 17.7402 7.69732 17.6464 7.60355C17.5527 7.50979 17.5 7.38261 17.5 7.25V4.75H15C14.8674 4.75 14.7402 4.69732 14.6464 4.60355C14.5527 4.50979 14.5 4.38261 14.5 4.25C14.5 4.11739 14.5527 3.99021 14.6464 3.89645C14.7402 3.80268 14.8674 3.75 15 3.75H17.5V1.25ZM6.5 5.75C6.5 5.48478 6.60536 5.23043 6.79289 5.04289C6.98043 4.85536 7.23478 4.75 7.5 4.75H11C11.1326 4.75 11.2598 4.69732 11.3536 4.60355C11.4473 4.50979 11.5 4.38261 11.5 4.25C11.5 4.11739 11.4473 3.99021 11.3536 3.89645C11.2598 3.80268 11.1326 3.75 11 3.75H7.5C6.96957 3.75 6.46086 3.96071 6.08579 4.33579C5.71071 4.71086 5.5 5.21957 5.5 5.75V19.75C5.5 19.8429 5.52586 19.9339 5.57467 20.0129C5.62349 20.0919 5.69334 20.1557 5.77639 20.1972C5.85945 20.2387 5.95242 20.2563 6.0449 20.248C6.13738 20.2396 6.22572 20.2057 6.3 20.15L12 15.75L17.7 20.15C17.7743 20.2057 17.8626 20.2396 17.9551 20.248C18.0476 20.2563 18.1406 20.2387 18.2236 20.1972C18.3067 20.1557 18.3765 20.0919 18.4253 20.0129C18.4741 19.9339 18.5 19.8429 18.5 19.75V11.25C18.5 11.1174 18.4473 10.9902 18.3536 10.8964C18.2598 10.8027 18.1326 10.75 18 10.75C17.8674 10.75 17.7402 10.8027 17.6464 10.8964C17.5527 10.9902 17.5 11.1174 17.5 11.25V18.73L12.3 14.73C12.2135 14.6651 12.1082 14.63 12 14.63C11.8918 14.63 11.7865 14.6651 11.7 14.73L6.5 18.73V5.75Z" fill="#6B6B6B"/>
</svg>
