<svg width="25" height="25" viewBox="0 0 25 25" fill="none" xmlns="http://www.w3.org/2000/svg">
<path d="M18.3398 17.4797C19.063 16.7977 19.6357 15.9722 20.0214 15.0561C20.4072 14.1401 20.5973 13.1535 20.5798 12.1597C20.5798 8.03969 17.0498 4.67969 12.5298 4.67969C8.00984 4.67969 4.33984 8.03969 4.33984 12.1597C4.33984 16.2897 8.00984 19.6397 12.5398 19.6397C13.344 19.641 14.1446 19.5334 14.9198 19.3197C15.1498 19.5197 15.3998 19.7097 15.6698 19.8797C16.7298 20.5697 17.8698 20.9197 19.0698 20.9197C19.2898 20.9197 19.4698 20.8097 19.5498 20.6297C19.5917 20.5477 19.6101 20.4558 19.603 20.3641C19.596 20.2723 19.5637 20.1843 19.5098 20.1097C18.926 19.3265 18.5292 18.42 18.3498 17.4597V17.4797H18.3398ZM15.2198 18.5397L15.1598 18.3197L14.8398 18.4197C14.0933 18.641 13.3185 18.7522 12.5398 18.7497C8.50984 18.7497 5.23984 15.7897 5.23984 12.1597C5.23984 8.52969 8.50984 5.57969 12.5398 5.57969C16.5398 5.57969 19.6398 8.53969 19.6398 12.1797C19.6398 13.9797 19.0398 15.6497 17.6198 16.8997L17.4198 17.0597V17.3197L17.4398 17.6197C17.5774 18.4685 17.8761 19.2831 18.3198 20.0197C17.5413 19.8988 16.7998 19.605 16.1498 19.1597C15.8698 18.9897 15.4298 18.7797 15.2098 18.5697L15.2198 18.5497V18.5397Z" fill="#6B6B6B"/>
</svg>
