<svg width="44" height="26" viewBox="0 0 44 26" fill="none" xmlns="http://www.w3.org/2000/svg">
<g clip-path="url(#clip0_1_15650)">
<path d="M24.8243 13.0002C24.8243 19.9031 19.2671 25.4989 12.4124 25.4989C5.5576 25.4989 0 19.9018 0 13.0002C0 6.09861 5.55718 0.501084 12.4124 0.501084C19.2675 0.501084 24.8243 6.09735 24.8243 13.0002ZM38.4406 13.0002C38.4406 19.4978 35.662 24.7672 32.2344 24.7672C28.8068 24.7672 26.0282 19.4978 26.0282 13.0002C26.0282 6.50266 28.8064 1.23325 32.234 1.23325C35.6616 1.23325 38.4406 6.50097 38.4406 13.0002ZM44.01 13.0002C44.01 18.8204 43.0329 23.5416 41.8273 23.5416C40.6216 23.5416 39.645 18.8217 39.645 13.0002C39.645 7.17873 40.622 2.45887 41.8273 2.45887C43.0325 2.45887 44.01 7.17831 44.01 13.0002Z" fill="#292929"/>
</g>
<defs>
<clipPath id="clip0_1_15650">
<rect width="44.01" height="25" fill="white" transform="translate(0 0.5)"/>
</clipPath>
</defs>
</svg>
