<svg width="162" height="25" viewBox="0 0 162 25" fill="none" xmlns="http://www.w3.org/2000/svg">
<path d="M24.3758 12.6311C24.3758 19.3424 18.9723 24.7831 12.3066 24.7831C5.6408 24.7831 0.237701 19.344 0.237701 12.6311C0.237701 5.91829 5.64121 0.479575 12.3066 0.479575C18.9719 0.479575 24.3758 5.91993 24.3758 12.6311ZM37.616 12.6311C37.616 18.9489 34.914 24.07 31.5813 24.07C28.2487 24.07 25.5467 18.9473 25.5467 12.6311C25.5467 6.315 28.2487 1.19225 31.5813 1.19225C34.914 1.19225 37.616 6.315 37.616 12.6311ZM43.0313 12.6311C43.0313 18.2916 42.081 22.8799 40.9089 22.8799C39.7368 22.8799 38.7864 18.2899 38.7864 12.6311C38.7864 6.97235 39.7368 2.38237 40.9093 2.38237C42.0818 2.38237 43.0313 6.97112 43.0313 12.6311ZM76.3405 1.53322L76.3741 1.52585V1.26561H69.5104L63.1372 16.2445L56.7641 1.26561H49.3676V1.52585L49.4008 1.53322C50.6536 1.816 51.2897 2.2377 51.2897 3.75854V21.5632C51.2897 23.084 50.6512 23.5057 49.3983 23.7885L49.3652 23.7959V24.0569H54.3834V23.7967L54.3502 23.7893C53.0974 23.5065 52.4614 23.0848 52.4614 21.564V4.79129L60.6484 24.0569H61.1127L69.5383 4.25402V22.0037C69.4309 23.2049 68.8006 23.5758 67.6662 23.8319L67.6326 23.8397V24.0979H76.3741V23.8397L76.3405 23.8319C75.2049 23.5758 74.5594 23.2049 74.452 22.0037L74.4463 3.75854H74.452C74.452 2.2377 75.0881 1.816 76.3405 1.53322ZM80.3334 13.3278C80.4764 10.1288 81.6251 7.81986 83.5529 7.78011C84.1476 7.78994 84.6463 7.98501 85.034 8.36041C85.8578 9.15997 86.2451 10.8308 86.1852 13.3278H80.3334ZM80.2469 14.2294H90.4925V14.1864C90.4634 11.7402 89.7548 9.8374 88.3884 8.53089C87.2073 7.40184 85.4586 6.78055 83.6218 6.78055H83.5808C82.6276 6.78055 81.4583 7.01169 80.6264 7.43053C79.6793 7.86904 78.8441 8.52475 78.149 9.38537C77.0302 10.7718 76.3524 12.6455 76.1876 14.7511C76.1823 14.8143 76.1778 14.8774 76.1733 14.9405C76.1688 15.0036 76.1659 15.0601 76.163 15.1204C76.1484 15.4164 76.1435 15.7129 76.1483 16.0093C76.2593 20.7784 78.8355 24.5897 83.4111 24.5897C87.4274 24.5897 89.7663 21.6537 90.3494 17.7129L90.0548 17.6092C89.0302 19.7272 87.1901 21.0107 85.0959 20.8542C82.237 20.6402 80.0469 17.7416 80.2457 14.2303M102.077 20.6923C101.74 21.4894 101.039 21.9279 100.1 21.9279C99.1598 21.9279 98.3008 21.2828 97.6906 20.1108C97.0349 18.8526 96.6898 17.074 96.6898 14.9671C96.6898 10.582 98.0537 7.74568 100.165 7.74568C101.049 7.74568 101.745 8.18419 102.077 8.94932V20.6923ZM108.873 23.8184C107.62 23.5221 106.984 23.0807 106.984 21.4824V0.216881L99.3725 2.45941V2.73399L99.4192 2.73031C100.469 2.64547 101.181 2.79055 101.595 3.1725C101.919 3.47167 102.077 3.93067 102.077 4.57654V7.492C101.326 7.01292 100.434 6.77973 99.3504 6.77973C97.1537 6.77973 95.146 7.7047 93.6981 9.38455C92.1887 11.1353 91.3908 13.5278 91.3908 16.3027C91.3904 21.2587 93.8301 24.5897 97.4611 24.5897C99.5852 24.5897 101.294 23.4258 102.077 21.4628V24.0979H108.906V23.825L108.873 23.8184ZM115.401 3.10898C115.401 1.5615 114.234 0.394333 112.686 0.394333C111.146 0.394333 109.941 1.58691 109.941 3.10898C109.941 4.63105 111.147 5.82363 112.686 5.82363C114.234 5.82363 115.401 4.65646 115.401 3.10898ZM117.198 23.8184C115.945 23.5221 115.309 23.0807 115.309 21.4824H115.304V6.83014L108.473 8.79113V9.05751L108.514 9.0612C109.992 9.19275 110.397 9.70175 110.397 11.4287V24.0979H117.233V23.825L117.198 23.8184ZM134.699 23.8184C133.446 23.5221 132.81 23.0807 132.81 21.4824V6.83014L126.307 8.72638V8.99358L126.346 8.99768C127.554 9.12472 127.903 9.66282 127.903 11.3976V20.6595C127.5 21.4566 126.745 21.93 125.829 21.9619C124.344 21.9619 123.527 20.9591 123.527 19.1383V6.83055L116.697 8.79154V9.05751L116.737 9.0612C118.215 9.19234 118.62 9.70134 118.62 11.4287V19.2674C118.617 19.8146 118.664 20.3609 118.762 20.8993L118.885 21.4341C119.464 23.5061 120.979 24.5897 123.352 24.5897C125.363 24.5897 127.125 23.3451 127.901 21.3976V24.1024H134.732V23.8295L134.699 23.8184ZM161.232 24.0979V23.8245L161.199 23.8168C159.84 23.5033 159.31 22.9123 159.31 21.7091V11.7422C159.31 8.63458 157.565 6.77973 154.641 6.77973C152.51 6.77973 150.713 8.01124 150.021 9.92961C149.472 7.8969 147.89 6.77973 145.552 6.77973C143.498 6.77973 141.888 7.86371 141.197 9.69478V6.83137L134.367 8.71204V8.98006L134.408 8.98375C135.868 9.11325 136.291 9.637 136.291 11.3197V24.0979H142.663V23.825L142.63 23.8168C141.545 23.5619 141.195 23.0971 141.195 21.9045V10.4804C141.482 9.81035 142.06 9.01653 143.203 9.01653C144.623 9.01653 145.343 10.0001 145.343 11.9377V24.0979H151.717V23.825L151.683 23.8168C150.599 23.5619 150.249 23.0971 150.249 21.9045V11.741C150.252 11.361 150.222 10.9814 150.159 10.6066C150.463 9.87838 151.074 9.01653 152.264 9.01653C153.704 9.01653 154.403 9.97182 154.403 11.9377V24.0979H161.232Z" fill="black"/>
</svg>
