<svg width="24" height="25" viewBox="0 0 24 25" fill="none" xmlns="http://www.w3.org/2000/svg">
<g clip-path="url(#clip0_1_8711)">
<path fill-rule="evenodd" clip-rule="evenodd" d="M3 12.81C3 11.6281 3.23279 10.4578 3.68508 9.36585C4.13738 8.27392 4.80031 7.28176 5.63604 6.44604C6.47177 5.61031 7.46392 4.94737 8.55585 4.49508C9.64778 4.04279 10.8181 3.81 12 3.81C13.1819 3.81 14.3522 4.04279 15.4442 4.49508C16.5361 4.94737 17.5282 5.61031 18.364 6.44604C19.1997 7.28176 19.8626 8.27392 20.3149 9.36585C20.7672 10.4578 21 11.6281 21 12.81C21 15.1969 20.0518 17.4861 18.364 19.174C16.6761 20.8618 14.3869 21.81 12 21.81C9.61305 21.81 7.32387 20.8618 5.63604 19.174C3.94821 17.4861 3 15.1969 3 12.81ZM12 2.81C9.34784 2.81 6.8043 3.86357 4.92893 5.73893C3.05357 7.61429 2 10.1578 2 12.81C2 15.4622 3.05357 18.0057 4.92893 19.8811C6.8043 21.7564 9.34784 22.81 12 22.81C14.6522 22.81 17.1957 21.7564 19.0711 19.8811C20.9464 18.0057 22 15.4622 22 12.81C22 10.1578 20.9464 7.61429 19.0711 5.73893C17.1957 3.86357 14.6522 2.81 12 2.81ZM15.38 13.23L10.78 16.29C10.7051 16.3406 10.6179 16.37 10.5276 16.375C10.4373 16.38 10.3474 16.3604 10.2673 16.3183C10.1873 16.2763 10.1202 16.2133 10.0731 16.1361C10.026 16.0589 10.0008 15.9704 10 15.88V9.74C10 9.34 10.45 9.11 10.78 9.33L15.38 12.39C15.68 12.59 15.68 13.03 15.38 13.23Z" fill="#6B6B6B"/>
</g>
<defs>
<clipPath id="clip0_1_8711">
<rect width="24" height="24" fill="white" transform="translate(0 0.809998)"/>
</clipPath>
</defs>
</svg>
