<svg width="17" height="16" viewBox="0 0 17 16" fill="none" xmlns="http://www.w3.org/2000/svg">
<path d="M15.5699 8C15.5699 8.65 15.1099 9.14 14.7099 9.57C14.4799 9.82 14.2399 10.07 14.1499 10.29C14.0499 10.51 14.0599 10.84 14.0499 11.17C14.0499 11.77 14.0399 12.47 13.5699 12.95C13.0899 13.43 12.4099 13.45 11.8199 13.45C11.4999 13.45 11.1699 13.46 10.9599 13.55C10.7599 13.62 10.4999 13.88 10.2599 14.12C9.83986 14.53 9.35986 15 8.71986 15C8.07986 15 7.59986 14.53 7.17986 14.12C6.97882 13.8907 6.74253 13.6949 6.47986 13.54C6.25986 13.45 5.93986 13.46 5.60986 13.45C5.01986 13.45 4.33986 13.43 3.86986 12.95C3.39986 12.47 3.38986 11.78 3.37986 11.17C3.37986 10.84 3.36986 10.5 3.27986 10.29C3.20986 10.09 2.95986 9.82 2.72986 9.58C2.32986 9.14 1.85986 8.65 1.85986 8C1.85986 7.35 2.31986 6.86 2.72986 6.42C2.95986 6.18 3.19986 5.92 3.28986 5.71C3.37986 5.49 3.36986 5.16 3.37986 4.83C3.37986 4.23 3.39986 3.53 3.86986 3.05C4.33986 2.57 5.01986 2.55 5.60986 2.55C5.93986 2.55 6.26986 2.54 6.46986 2.45C6.66986 2.37 6.93986 2.12 7.16986 1.88C7.59986 1.47 8.07986 1 8.71986 1C9.34986 1 9.83986 1.47 10.2599 1.88C10.4999 2.12 10.7499 2.36 10.9599 2.46C11.1799 2.55 11.4999 2.54 11.8199 2.55C12.4199 2.55 13.0899 2.57 13.5699 3.05C14.0399 3.53 14.0499 4.22 14.0599 4.83C14.0599 5.16 14.0599 5.5 14.1499 5.71C14.2299 5.91 14.4799 6.18 14.7099 6.42C15.1099 6.86 15.5699 7.35 15.5699 8Z" fill="#437AFF"/>
<path d="M7.7398 10.5C7.9398 10.5 8.1198 10.58 8.2598 10.72C8.3898 10.86 8.4698 11.05 8.4698 11.25C8.4698 11.32 8.4998 11.38 8.5398 11.43C8.56225 11.4539 8.58936 11.473 8.61946 11.486C8.64956 11.499 8.68201 11.5058 8.7148 11.5058C8.7476 11.5058 8.78005 11.499 8.81015 11.486C8.84025 11.473 8.86736 11.4539 8.8898 11.43C8.91282 11.4061 8.93087 11.3779 8.94289 11.347C8.95491 11.3161 8.96066 11.2831 8.9598 11.25C8.9598 11.05 9.0398 10.86 9.1798 10.72C9.24753 10.6506 9.32839 10.5955 9.41767 10.5577C9.50695 10.5199 9.60286 10.5003 9.6998 10.5H11.6598C11.7898 10.5 11.9098 10.45 11.9998 10.35C12.094 10.2577 12.1479 10.1319 12.1498 10V6C12.1479 5.86812 12.094 5.74232 11.9998 5.65C11.9559 5.60366 11.9033 5.56652 11.8449 5.54076C11.7865 5.51501 11.7236 5.50115 11.6598 5.5H10.1898C9.8598 5.5 9.5498 5.63 9.3198 5.87C9.0898 6.1 8.9598 6.42 8.9598 6.75V9.25C8.9598 9.32 8.9398 9.38 8.8898 9.43C8.86736 9.45392 8.84025 9.47298 8.81015 9.48601C8.78005 9.49904 8.7476 9.50576 8.7148 9.50576C8.68201 9.50576 8.64956 9.49904 8.61946 9.48601C8.58936 9.47298 8.56225 9.45392 8.5398 9.43C8.51678 9.40614 8.49874 9.37794 8.48672 9.34703C8.4747 9.31613 8.46895 9.28315 8.4698 9.25V6.75C8.4698 6.42 8.3398 6.1 8.1098 5.87C7.99822 5.7543 7.8647 5.66198 7.71704 5.59846C7.56938 5.53493 7.41054 5.50146 7.2498 5.5H5.7798C5.71432 5.49981 5.64948 5.51301 5.58929 5.53881C5.5291 5.56461 5.47483 5.60245 5.4298 5.65C5.33926 5.74394 5.28902 5.86954 5.2898 6V10C5.2898 10.13 5.3398 10.26 5.4298 10.35C5.5298 10.45 5.6498 10.5 5.7798 10.5H7.7398Z" fill="white"/>
</svg>
